{"title":"Britney Spears - Work Bitch (720p)","uid":8987345,"size":66648366,"categoryP":"video","categoryS":"music_videos","magnet":"?xt=urn:btih:0bd2fae3b167712f9cc2a98bac98388d59525ceb&amp;dn=Britney+Spears+-+Work+Bitch+%28720p%29&amp;tr=udp%3A%2F%2Ftracker.openbittorrent.com%3A80&amp;tr=udp%3A%2F%2Fopen.demonii.com%3A1337&amp;tr=udp%3A%2F%2Ftracker.coppersurfer.tk%3A6969&amp;tr=udp%3A%2F%2Fexodus.desync.com%3A6969","seeders":1,"leechers":0,"uploader":null,"files":8,"time":1380702789,"description":"General\nComplete name                  : Britney Spears - Work Bitch\nFormat                         : MPEG-4\nFormat profile                 : Base Media / Version 2\nCodec ID                       : mp42\nFile size                      : 62.7 MiB\nDuration                       : 3mn 54s\nOverall bit rate mode          : Variable\nOverall bit rate               : 2 242 Kbps\nEncoded date                   : UTC 2013-09-30 00:40:56\n----------------------------------------------------------\nVideo\nID                             : 1\nFormat                         : AVC\nFormat/Info                    : Advanced Video Codec\nFormat profile                 : &lt;a class=&quot;__cf_email__&quot; href=&quot;/cdn-cgi/l/email-protection&quot; data-cfemail=&quot;2c64454b446c601f021d&quot;&gt;[email&amp;#160;protected]&lt;/a&gt;&lt;script cf-hash='f9e31' type=&quot;text/javascript&quot;&gt;\n/* &lt;![CDATA[ */!function(){try{var t=&quot;currentScript&quot;in document?document.currentScript:function(){for(var t=document.getElementsByTagName(&quot;script&quot;),e=t.length;e--;)if(t[e].getAttribute(&quot;cf-hash&quot;))return t[e]}();if(t&amp;&amp;t.previousSibling){var e,r,n,i,c=t.previousSibling,a=c.getAttribute(&quot;data-cfemail&quot;);if(a){for(e=&quot;&quot;,r=parseInt(a.substr(0,2),16),n=2;a.length-n;n+=2)i=parseInt(a.substr(n,2),16)^r,e+=String.fromCharCode(i);e=document.createTextNode(e),c.parentNode.replaceChild(e,c)}}}catch(u){}}();/* ]]&gt; */&lt;/script&gt;\nFormat settings, CABAC         : Yes\nFormat settings, ReFrames      : 1 frame\nCodec ID                       : avc1\nCodec ID/Info                  : Advanced Video Coding\nDuration                       : 3mn 54s\nBit rate                       : 2 048 Kbps\nMaximum bit rate               : 5 340 Kbps\nWidth                          : 1 280 pixels\nHeight                         : 720 pixels\nDisplay aspect ratio           : 16:9\nFrame rate mode                : Constant\nFrame rate                     : 23.976 fps\nColor space                    : YUV\nChroma subsampling             : 4:2:0\nBit depth                      : 8 bits\nScan type                      : Progressive\nBits/(Pixel*Frame)             : 0.093\nStream size                    : 57.3 MiB (91%)\n----------------------------------------------------------\nAudio\nID                             : 2\nFormat                         : AAC\nFormat/Info                    : Advanced Audio Codec\nFormat profile                 : LC\nCodec ID                       : 40\nDuration                       : 3mn 54s\nBit rate mode                  : Variable\nBit rate                       : 192 Kbps\nMaximum bit rate               : 204 Kbps\nChannel(s)                     : 2 channels\nChannel positions              : Front: L R\nSampling rate                  : 44.1 KHz\nCompression mode               : Lossy\nStream size                    : 5.37 MiB (9%)\n----------------------------------------------------------\nTotal size        : 63.5Mb\n----------------------------------------------------------\nEncoded by Eisa","torrent":{"xt":"urn:btih:0bd2fae3b167712f9cc2a98bac98388d59525ceb","amp;dn":"Britney+Spears+-+Work+Bitch+%28720p%29","amp;tr":["udp%3A%2F%2Ftracker.openbittorrent.com%3A80","udp%3A%2F%2Fopen.demonii.com%3A1337","udp%3A%2F%2Ftracker.coppersurfer.tk%3A6969","udp%3A%2F%2Fexodus.desync.com%3A6969"],"infoHash":"0bd2fae3b167712f9cc2a98bac98388d59525ceb","infoHashBuffer":{"type":"Buffer","data":[11,210,250,227,177,103,113,47,156,194,169,139,172,152,56,141,89,82,92,235]},"announce":[],"urlList":[]}}